<?xml version="1.0" encoding="utf-8"?>
<svg id="master-artboard" viewBox="0 0 1400 980" version="1.1" xmlns="http://www.w3.org/2000/svg" x="0px" y="0px" style="enable-background:new 0 0 336 235.2;" width="1400px" height="980px"><rect id="ee-background" x="0" y="0" width="1400" height="980" style="fill: white; fill-opacity: 0; pointer-events: none;"/>














<g transform="matrix(30.624998092651367, 0, 0, 30.624998092651367, 210.00000496108078, 1.8718139926932054e-8)"><path d="M8.268 28h-5.805v-18.694h5.805zM5.362 6.756c-1.856 0-3.362-1.538-3.362-3.394s1.505-3.362 3.362-3.362 3.362 1.505 3.362 3.362c0 1.856-1.506 3.394-3.362 3.394zM29.994 28h-5.792v-9.1c0-2.169-0.044-4.95-3.018-4.95-3.018 0-3.481 2.356-3.481 4.794v9.256h-5.799v-18.694h5.567v2.55h0.081c0.775-1.469 2.668-3.019 5.492-3.019 5.875 0 6.955 3.869 6.955 8.894v10.269z" style="fill: rgb(244, 149, 47);"/></g></svg>